REM DIRINDEX 1\2,1\4,1\5,1\6,1\7,1\3\8,1\3\9,1\3\10
REM DIRNAME cjc113,folder01,folder02,folder03,folder04,folder05,folder06,folder07,folder08,folder09
TITLE ""
FILE "DB4500_5th_3B_17.mp3" MP3
  TRACK 01 AUDIO
    TITLE "0:"
    INDEX 01 00:00:00
  TRACK 02 AUDIO
    TITLE "8:cjc113_2419"
    INDEX 01 00:00:01
  TRACK 03 AUDIO
    TITLE "0:"
    INDEX 01 00:01:09
  TRACK 04 AUDIO
    TITLE "9:cjc113_2420"
    INDEX 01 00:01:34
  TRACK 05 AUDIO
    TITLE "0:"
    INDEX 01 00:02:51
  TRACK 06 AUDIO
    TITLE "10:cjc113_2421"
    INDEX 01 00:03:00
  TRACK 07 AUDIO
    TITLE "0:"
    INDEX 01 00:05:40
  TRACK 08 AUDIO
    TITLE "8:cjc113_2422"
    INDEX 01 00:06:12
  TRACK 09 AUDIO
    TITLE "0:"
    INDEX 01 00:07:25
  TRACK 10 AUDIO
    TITLE "9:cjc113_2423"
    INDEX 01 00:07:51
  TRACK 11 AUDIO
    TITLE "0:"
    INDEX 01 00:09:06
  TRACK 12 AUDIO
    TITLE "10:cjc113_2424"
    INDEX 01 00:09:28
  TRACK 13 AUDIO
    TITLE "0:"
    INDEX 01 00:12:07
  TRACK 14 AUDIO
    TITLE "8:cjc113_2425"
    INDEX 01 00:12:56
  TRACK 15 AUDIO
    TITLE "0:"
    INDEX 01 00:14:02
  TRACK 16 AUDIO
    TITLE "9:cjc113_2426"
    INDEX 01 00:14:27
  TRACK 17 AUDIO
    TITLE "0:"
    INDEX 01 00:15:70
  TRACK 18 AUDIO
    TITLE "10:cjc113_2427"
    INDEX 01 00:16:16
  TRACK 19 AUDIO
    TITLE "0:"
    INDEX 01 00:19:67
  TRACK 20 AUDIO
    TITLE "8:cjc113_2428"
    INDEX 01 00:20:36
  TRACK 21 AUDIO
    TITLE "0:"
    INDEX 01 00:21:68
  TRACK 22 AUDIO
    TITLE "9:cjc113_2429"
    INDEX 01 00:22:15
  TRACK 23 AUDIO
    TITLE "0:"
    INDEX 01 00:23:28
  TRACK 24 AUDIO
    TITLE "10:cjc113_2430"
    INDEX 01 00:23:51
  TRACK 25 AUDIO
    TITLE "0:"
    INDEX 01 00:26:30
  TRACK 26 AUDIO
    TITLE "8:cjc113_2431"
    INDEX 01 00:27:00
  TRACK 27 AUDIO
    TITLE "0:"
    INDEX 01 00:28:19
  TRACK 28 AUDIO
    TITLE "9:cjc113_2432"
    INDEX 01 00:28:43
  TRACK 29 AUDIO
    TITLE "0:"
    INDEX 01 00:30:06
  TRACK 30 AUDIO
    TITLE "10:cjc113_2433"
    INDEX 01 00:30:28
  TRACK 31 AUDIO
    TITLE "0:"
    INDEX 01 00:34:57
  TRACK 32 AUDIO
    TITLE "8:cjc113_2434"
    INDEX 01 00:35:29
  TRACK 33 AUDIO
    TITLE "0:"
    INDEX 01 00:36:56
  TRACK 34 AUDIO
    TITLE "9:cjc113_2435"
    INDEX 01 00:37:05
  TRACK 35 AUDIO
    TITLE "0:"
    INDEX 01 00:38:26
  TRACK 36 AUDIO
    TITLE "10:cjc113_2436"
    INDEX 01 00:38:49
  TRACK 37 AUDIO
    TITLE "0:"
    INDEX 01 00:42:27
  TRACK 38 AUDIO
    TITLE "8:cjc113_2437"
    INDEX 01 00:43:01
  TRACK 39 AUDIO
    TITLE "0:"
    INDEX 01 00:44:24
  TRACK 40 AUDIO
    TITLE "9:cjc113_2438"
    INDEX 01 00:44:46
  TRACK 41 AUDIO
    TITLE "0:"
    INDEX 01 00:45:61
  TRACK 42 AUDIO
    TITLE "10:cjc113_2439"
    INDEX 01 00:46:06
  TRACK 43 AUDIO
    TITLE "0:"
    INDEX 01 00:49:29
  TRACK 44 AUDIO
    TITLE "8:cjc113_2440"
    INDEX 01 00:50:09
  TRACK 45 AUDIO
    TITLE "0:"
    INDEX 01 00:51:26
  TRACK 46 AUDIO
    TITLE "9:cjc113_2441"
    INDEX 01 00:51:48
  TRACK 47 AUDIO
    TITLE "0:"
    INDEX 01 00:53:06
  TRACK 48 AUDIO
    TITLE "10:cjc113_2442"
    INDEX 01 00:53:29
  TRACK 49 AUDIO
    TITLE "0:"
    INDEX 01 00:56:35
  TRACK 50 AUDIO
    TITLE "8:cjc113_2443"
    INDEX 01 00:57:07
  TRACK 51 AUDIO
    TITLE "0:"
    INDEX 01 00:58:30
  TRACK 52 AUDIO
    TITLE "9:cjc113_2444"
    INDEX 01 00:58:52
  TRACK 53 AUDIO
    TITLE "0:"
    INDEX 01 00:59:73
  TRACK 54 AUDIO
    TITLE "10:cjc113_2445"
    INDEX 01 01:00:23
  TRACK 55 AUDIO
    TITLE "0:"
    INDEX 01 01:03:57
  TRACK 56 AUDIO
    TITLE "8:cjc113_2446"
    INDEX 01 01:04:31
  TRACK 57 AUDIO
    TITLE "0:"
    INDEX 01 01:05:60
  TRACK 58 AUDIO
    TITLE "9:cjc113_2447"
    INDEX 01 01:06:08
  TRACK 59 AUDIO
    TITLE "0:"
    INDEX 01 01:07:41
  TRACK 60 AUDIO
    TITLE "10:cjc113_2448"
    INDEX 01 01:07:64
  TRACK 61 AUDIO
    TITLE "0:"
    INDEX 01 01:11:51
